# xmcd
#
# Track frame offsets:
#	150
#	13308
#	24331
#	39600
#	59257
#	78650
#	92891
#	111183
#	126751
#	142650
#	155279
#	170499
#
# Disc length: 2496 seconds
#
# Revision: 0
# Processed by: cddbd v1.5.2PL0 Copyright (c) Steve Scherf et al.
# Submitted via: audiograbber 1.83.01
#
DISCID=9609be0c
DTITLE=Charly And The Outlaws - Six Days On The Road
DYEAR=1900
DGENRE=Country
TTITLE0=Tulsa Time
TTITLE1=Lousiana Saturday Night
TTITLE2=Redneck Girl
TTITLE3=Could It Be
TTITLE4=Family Tradition
TTITLE5=Six Days On The Road
TTITLE6=Angel Of The Morning
TTITLE7=Achy Breaky Heart
TTITLE8=Folsom Prison
TTITLE9=The Letter
TTITLE10=Black Coffee
TTITLE11=Once Upon A Time
EXTD=
EXTT0=
EXTT1=
EXTT2=
EXTT3=
EXTT4=
EXTT5=
EXTT6=
EXTT7=
EXTT8=
EXTT9=
EXTT10=
EXTT11=
PLAYORDER=
